<?xml version="1.0" encoding="utf-8"?>
<!-- Generator: Adobe Illustrator 16.0.3, SVG Export Plug-In . SVG Version: 6.00 Build 0)  -->
<!DOCTYPE svg PUBLIC "-//W3C//DTD SVG 1.1//EN" "http://www.w3.org/Graphics/SVG/1.1/DTD/svg11.dtd">
<svg version="1.1" id="Capa_1" xmlns="http://www.w3.org/2000/svg" xmlns:xlink="http://www.w3.org/1999/xlink" x="0px" y="0px"
	 width="59.693px" height="59.693px" viewBox="0 0 59.693 59.693" enable-background="new 0 0 59.693 59.693" xml:space="preserve">
<g>
	<defs>
		<rect id="SVGID_1_" width="59.693" height="59.693"/>
	</defs>
	<clipPath id="SVGID_2_">
		<use xlink:href="#SVGID_1_"  overflow="visible"/>
	</clipPath>
	<path clip-path="url(#SVGID_2_)" d="M36.933,29.846c0,3.914-3.173,7.086-7.086,7.086c-3.914,0-7.087-3.172-7.087-7.086
		s3.173-7.086,7.087-7.086C33.76,22.76,36.933,25.932,36.933,29.846"/>
	
		<circle clip-path="url(#SVGID_2_)" fill="none" stroke="#211915" stroke-width="3" stroke-linecap="round" stroke-linejoin="round" stroke-miterlimit="10" cx="29.846" cy="29.846" r="7.086"/>
	
		<circle clip-path="url(#SVGID_2_)" fill="none" stroke="#211915" stroke-width="3" stroke-linecap="round" stroke-linejoin="round" stroke-miterlimit="10" cx="29.847" cy="29.846" r="14.173"/>
	
		<path clip-path="url(#SVGID_2_)" fill="none" stroke="#211915" stroke-width="3" stroke-linecap="round" stroke-linejoin="round" stroke-miterlimit="10" d="
		M58.192,29.846c0,3.914-0.793,7.642-2.228,11.034c-1.434,3.391-3.51,6.445-6.074,9.01c-2.565,2.565-5.619,4.642-9.01,6.075
		c-3.393,1.434-7.121,2.227-11.034,2.227c-3.914,0-7.642-0.793-11.034-2.227c-3.391-1.434-6.445-3.51-9.01-6.075
		c-2.565-2.564-4.64-5.619-6.075-9.01C2.293,37.488,1.5,33.76,1.5,29.846s0.793-7.642,2.227-11.034
		c1.435-3.391,3.51-6.445,6.075-9.01c2.565-2.565,5.619-4.64,9.01-6.075C22.205,2.293,25.933,1.5,29.847,1.5
		c3.913,0,7.642,0.793,11.034,2.227c3.391,1.435,6.444,3.51,9.01,6.075c2.564,2.565,4.641,5.619,6.074,9.01
		C57.399,22.204,58.192,25.932,58.192,29.846z"/>
	
		<path clip-path="url(#SVGID_2_)" fill="none" stroke="#211915" stroke-width="3" stroke-linecap="round" stroke-linejoin="round" stroke-miterlimit="10" d="
		M51.106,29.846c0,2.937-0.595,5.732-1.671,8.276c-1.076,2.543-2.633,4.834-4.557,6.757c-1.923,1.924-4.214,3.479-6.757,4.556
		c-2.544,1.077-5.34,1.671-8.275,1.671c-2.935,0-5.732-0.594-8.275-1.671c-2.544-1.076-4.835-2.632-6.758-4.556
		c-1.924-1.923-3.48-4.214-4.556-6.757c-1.076-2.544-1.671-5.34-1.671-8.276c0-2.935,0.595-5.731,1.671-8.275
		c1.076-2.544,2.632-4.834,4.556-6.758c1.923-1.924,4.214-3.48,6.758-4.556c2.543-1.076,5.34-1.671,8.275-1.671
		c2.936,0,5.731,0.595,8.275,1.671c2.543,1.076,4.834,2.632,6.757,4.556c1.924,1.924,3.48,4.214,4.557,6.758
		S51.106,26.911,51.106,29.846z"/>
</g>
</svg>
