<?xml version="1.0" encoding="utf-8"?>
<!-- Generator: Adobe Illustrator 16.0.3, SVG Export Plug-In . SVG Version: 6.00 Build 0)  -->
<!DOCTYPE svg PUBLIC "-//W3C//DTD SVG 1.1//EN" "http://www.w3.org/Graphics/SVG/1.1/DTD/svg11.dtd">
<svg version="1.1" id="Capa_1" xmlns="http://www.w3.org/2000/svg" xmlns:xlink="http://www.w3.org/1999/xlink" x="0px" y="0px"
	 width="206.929px" height="334.928px" viewBox="0 0 206.929 334.928" enable-background="new 0 0 206.929 334.928"
	 xml:space="preserve">
<g>
	<defs>
		<rect id="SVGID_1_" width="206.929" height="334.928"/>
	</defs>
	<clipPath id="SVGID_2_">
		<use xlink:href="#SVGID_1_"  overflow="visible"/>
	</clipPath>
	<path clip-path="url(#SVGID_2_)" d="M180.278,0H26.651C11.902,0,0,11.975,0,26.725c0,14.749,11.902,26.724,26.651,26.724h126.903
		v37.256h-46.755c-14.745,0-26.699,11.955-26.699,26.701c0,14.745,11.954,26.699,26.699,26.699h46.755v87.357
		c0,27.602-22.417,50.091-50.089,50.091c-26.579,0-48.265-20.737-49.871-46.804h49.871v-53.375H26.651
		C11.902,181.375,0,193.276,0,208.025v26.725h0.073c0.511,16.939,5.111,32.857,12.851,46.804
		c9.419,17.013,23.511,31.031,40.451,40.45c14.822,8.251,31.908,12.925,50.09,12.925c18.18,0,35.268-4.674,50.089-12.925
		c16.94-9.419,31.032-23.438,40.452-40.45c8.251-14.822,12.923-31.908,12.923-50.091V26.725C206.929,11.975,195.027,0,180.278,0"/>
	<path clip-path="url(#SVGID_2_)" d="M26.7,144.105c14.746,0,26.7-11.954,26.7-26.7s-11.954-26.7-26.7-26.7
		c-14.746,0-26.7,11.954-26.7,26.7S11.954,144.105,26.7,144.105"/>
</g>
</svg>
