<?xml version="1.0" encoding="utf-8"?>
<!-- Generator: Adobe Illustrator 16.0.3, SVG Export Plug-In . SVG Version: 6.00 Build 0)  -->
<!DOCTYPE svg PUBLIC "-//W3C//DTD SVG 1.1//EN" "http://www.w3.org/Graphics/SVG/1.1/DTD/svg11.dtd">
<svg version="1.1" id="Capa_1" xmlns="http://www.w3.org/2000/svg" xmlns:xlink="http://www.w3.org/1999/xlink" x="0px" y="0px"
	 width="59.693px" height="59.693px" viewBox="0 0 59.693 59.693" enable-background="new 0 0 59.693 59.693" xml:space="preserve">
<g>
	<defs>
		<rect id="SVGID_1_" width="59.693" height="59.693"/>
	</defs>
	<clipPath id="SVGID_2_">
		<use xlink:href="#SVGID_1_"  overflow="visible"/>
	</clipPath>
	<path clip-path="url(#SVGID_2_)" d="M38.418,13.608H22.815c-1.498,0-2.707,1.216-2.707,2.714c0,1.498,1.209,2.714,2.707,2.714
		h12.888v3.784h-4.748c-1.497,0-2.712,1.214-2.712,2.712c0,1.497,1.215,2.712,2.712,2.712h4.748v8.872
		c0,2.803-2.276,5.087-5.087,5.087c-2.699,0-4.902-2.106-5.065-4.753h5.065V32.03h-7.801c-1.498,0-2.707,1.209-2.707,2.707v2.714
		h0.008c0.052,1.72,0.519,3.337,1.305,4.753c0.956,1.728,2.388,3.152,4.108,4.107c1.505,0.839,3.241,1.313,5.087,1.313
		c1.847,0,3.582-0.475,5.087-1.313c1.721-0.955,3.152-2.38,4.109-4.107c0.837-1.505,1.312-3.241,1.312-5.087V16.322
		C41.124,14.825,39.915,13.608,38.418,13.608"/>
	<path clip-path="url(#SVGID_2_)" d="M22.82,28.244c1.498,0,2.712-1.214,2.712-2.712c0-1.497-1.214-2.711-2.712-2.711
		s-2.711,1.214-2.711,2.711C20.109,27.03,21.322,28.244,22.82,28.244"/>
	
		<rect x="1.5" y="1.501" clip-path="url(#SVGID_2_)" fill="none" stroke="#211915" stroke-width="3" stroke-linecap="round" stroke-linejoin="round" stroke-miterlimit="10" width="56.692" height="56.692"/>
</g>
</svg>
